<svg width="121" height="54" viewBox="0 0 121 54" fill="none" xmlns="http://www.w3.org/2000/svg">
<path d="M102.322 10.4393C105.776 9.17854 107.714 9.06367 111.167 10.4393V42.6152C107.711 43.7192 105.777 43.7987 102.322 42.6152V10.4393Z" fill="black"/>
<path d="M97.909 33.5874H80.2204C80.3794 35.0213 80.7623 36.0895 81.3693 36.7918C82.2219 37.8014 83.3347 38.3062 84.7076 38.3062C85.5747 38.3062 86.3984 38.0868 87.1788 37.6478C87.6557 37.3698 88.1687 36.8796 88.7179 36.1773C89.7511 34.8558 97.1503 35.1969 97.4104 36.9893C96.0808 39.3305 94.4767 41.0132 92.5981 42.0374C90.7194 43.047 88.0242 43.5518 84.5125 43.5518C81.4632 43.5518 79.0643 43.1202 77.3157 42.2569C75.5671 41.379 74.1147 39.9962 72.9586 38.1087C71.8169 36.2065 71.2461 33.9751 71.2461 31.4145C71.2461 27.7712 72.395 24.8228 74.6928 22.5695C77.005 20.3161 80.1915 19.1895 84.2524 19.1895C87.5473 19.1895 90.1485 19.6943 92.0561 20.7039C93.9637 21.7135 95.4161 23.1767 96.4132 25.0935C97.4104 27.0103 97.909 29.5051 97.909 32.5778V33.5874ZM88.9346 29.3075C88.7612 27.5809 88.2988 26.3445 87.5473 25.5983C86.8103 24.8521 85.8348 24.4789 84.6209 24.4789C83.2191 24.4789 82.0991 25.0423 81.2609 26.1689C80.7262 26.8713 80.3866 27.9175 80.2421 29.3075H88.9346Z" fill="black"/>
<path d="M41.6504 31.4365C41.6504 27.8809 42.8354 24.9545 45.2054 22.6573C47.5755 20.3454 50.7765 19.1895 54.8084 19.1895C59.4184 19.1895 62.9012 20.5429 65.2568 23.2498C67.1499 25.43 68.0965 28.115 68.0965 31.3048C68.0965 34.8896 66.9187 37.8307 64.5631 40.1279C62.222 42.4105 58.9776 43.5518 54.8301 43.5518C51.1305 43.5518 48.1391 42.6007 45.8558 40.6986C43.0522 38.3428 41.6504 35.2554 41.6504 31.4365ZM50.4947 31.4145C50.4947 33.4923 50.9065 35.0287 51.7303 36.0236C52.5684 37.0186 53.6162 37.5161 54.8734 37.5161C56.1452 37.5161 57.1857 37.0259 57.9949 36.0456C58.8187 35.0652 59.2305 33.4923 59.2305 31.3267C59.2305 29.3075 58.8187 27.8077 57.9949 26.8274C57.1712 25.8324 56.1524 25.3349 54.9385 25.3349C53.6523 25.3349 52.5901 25.8397 51.7519 26.8493C50.9137 27.8443 50.4947 29.366 50.4947 31.4145Z" fill="black"/>
<path d="M37.4506 42.3395C33.1274 43.5781 30.7309 43.6662 27.2624 42.3395L9.83398 13.2143C13.95 10.8183 16.1851 10.5705 19.9572 13.2143L37.4506 42.3395ZM9.83398 42.3395V15.9798L18.1797 29.829V42.3395C15.2435 43.5637 13.4595 43.7212 9.83398 42.3395ZM37.4506 13.2143V39.574L29.1049 25.6589V13.2143C32.5408 11.0733 34.3637 11.0398 37.4506 13.2143Z" fill="black"/>
</svg>
